<svg width="29" height="23" viewBox="0 0 29 23" fill="none" xmlns="http://www.w3.org/2000/svg">
<path d="M3.39917 22.1885C3.42153 22.3266 3.49273 22.452 3.5998 22.5419C3.70687 22.6318 3.84268 22.6803 3.9825 22.6785H5.9425C6.02721 22.6778 6.11075 22.6587 6.18731 22.6224C6.26388 22.5861 6.33162 22.5336 6.38583 22.4685C6.4404 22.4049 6.48063 22.3303 6.50378 22.2498C6.52693 22.1693 6.53246 22.0847 6.52 22.0019L5.30083 14.5819H6.0125C14.8792 15.3927 18.7408 20.5902 18.7758 20.6369C18.8301 20.713 18.9019 20.7751 18.9851 20.8177C19.0684 20.8604 19.1606 20.8824 19.2542 20.8819C19.3138 20.8836 19.3733 20.8737 19.4292 20.8527C19.5472 20.8156 19.6504 20.7419 19.7238 20.6423C19.7972 20.5426 19.837 20.4223 19.8375 20.2985V13.7944H21.0567C21.2114 13.7944 21.3597 13.7329 21.4691 13.6235C21.5785 13.5141 21.64 13.3657 21.64 13.211V9.00519C21.64 8.85048 21.5785 8.70211 21.4691 8.59271C21.3597 8.48331 21.2114 8.42185 21.0567 8.42185H19.8375V1.95269C19.8344 1.8365 19.7966 1.7239 19.7291 1.62932C19.6615 1.53474 19.5672 1.46249 19.4583 1.42186C19.3418 1.38271 19.2159 1.38137 19.0986 1.41804C18.9812 1.4547 18.8785 1.52749 18.805 1.62602C18.7642 1.68436 14.5292 7.22602 5.93667 7.71019H2.32C1.84132 7.71015 1.3819 7.89869 1.04125 8.23498C0.700592 8.57126 0.506137 9.02822 0.5 9.50686V12.7619C0.501203 13.2149 0.671878 13.6511 0.978456 13.9847C1.28503 14.3182 1.70533 14.525 2.15667 14.5644L3.39917 22.1885ZM5.25417 21.5119H4.4725L3.34083 14.5819H4.1225L5.25417 21.5119ZM20.4733 9.58852V12.6044H19.8375V9.58852H20.4733ZM18.6708 3.46936V18.7585C16.9558 17.0785 13.0942 14.1444 6.52 13.4444V8.81269C11.0716 8.51165 15.3725 6.62031 18.6708 3.46936ZM1.66667 12.7619V9.50686C1.66667 9.33358 1.7355 9.1674 1.85802 9.04488C1.98055 8.92235 2.14673 8.85352 2.32 8.85352H5.35333V13.4152H2.32C2.14673 13.4152 1.98055 13.3464 1.85802 13.2238C1.7355 13.1013 1.66667 12.9351 1.66667 12.7619ZM23.3083 7.59352C23.3552 7.69478 23.4301 7.78047 23.5242 7.84044C23.6183 7.9004 23.7276 7.93213 23.8392 7.93185C23.9236 7.93126 24.0069 7.91339 24.0842 7.87935L27.625 6.28102C27.6953 6.24952 27.7587 6.20439 27.8115 6.14825C27.8643 6.0921 27.9055 6.02605 27.9326 5.95391C27.9597 5.88178 27.9723 5.80498 27.9695 5.72796C27.9668 5.65094 27.9488 5.57522 27.9167 5.50519C27.8519 5.36565 27.7347 5.25732 27.5905 5.20379C27.4463 5.15025 27.2868 5.15585 27.1467 5.21936L23.6 6.81769C23.5297 6.84919 23.4663 6.89432 23.4135 6.95046C23.3607 7.00661 23.3195 7.07266 23.2924 7.1448C23.2653 7.21693 23.2527 7.29373 23.2555 7.37075C23.2582 7.44777 23.2762 7.52349 23.3083 7.59352ZM24.7083 0.774355L22.0833 3.63852C22.0063 3.72163 21.9551 3.82539 21.936 3.93712C21.9169 4.04885 21.9309 4.16371 21.976 4.26767C22.0212 4.37162 22.0957 4.46016 22.1904 4.52247C22.285 4.58478 22.3958 4.61816 22.5092 4.61852C22.5901 4.61907 22.6703 4.60276 22.7446 4.57062C22.819 4.53848 22.8858 4.49122 22.9408 4.43185L25.5658 1.56186C25.6588 1.44647 25.7044 1.3 25.6934 1.15221C25.6823 1.00442 25.6154 0.866387 25.5062 0.766141C25.3971 0.665894 25.2539 0.610955 25.1057 0.612481C24.9575 0.614006 24.8154 0.671883 24.7083 0.774355ZM27.625 15.0719L24.0842 13.4677C24.0145 13.4359 23.9392 13.4181 23.8626 13.4155C23.786 13.4128 23.7097 13.4252 23.6379 13.452C23.5661 13.4788 23.5003 13.5195 23.4443 13.5717C23.3883 13.624 23.343 13.6867 23.3112 13.7564C23.2795 13.8261 23.2617 13.9014 23.259 13.978C23.2563 14.0546 23.2687 14.1309 23.2955 14.2027C23.3224 14.2745 23.363 14.3403 23.4153 14.3963C23.4675 14.4524 23.5303 14.4976 23.6 14.5294L27.1467 16.1335C27.2218 16.1677 27.3033 16.1856 27.3858 16.186C27.5188 16.1854 27.6476 16.1394 27.7508 16.0556C27.8541 15.9717 27.9256 15.8551 27.9535 15.7251C27.9814 15.5951 27.9641 15.4594 27.9043 15.3406C27.8446 15.2218 27.746 15.127 27.625 15.0719ZM22.1008 17.7085L24.7083 20.5785C24.7634 20.6379 24.8302 20.6851 24.9045 20.7173C24.9788 20.7494 25.059 20.7657 25.14 20.7652C25.2846 20.7648 25.4239 20.7108 25.5308 20.6135C25.6443 20.5089 25.7116 20.3637 25.7182 20.2095C25.7247 20.0553 25.67 19.9049 25.5658 19.791L22.9583 16.921C22.9083 16.8589 22.846 16.8077 22.7754 16.7706C22.7048 16.7336 22.6273 16.7113 22.5477 16.7054C22.4682 16.6994 22.3883 16.7099 22.3129 16.736C22.2375 16.7622 22.1683 16.8035 22.1096 16.8575C22.0508 16.9114 22.0038 16.9768 21.9713 17.0497C21.9389 17.1226 21.9217 17.2013 21.9209 17.2811C21.92 17.3609 21.9356 17.4399 21.9665 17.5135C21.9975 17.587 22.0432 17.6534 22.1008 17.7085ZM27.9167 10.0902H24.23C24.0753 10.0902 23.9269 10.1516 23.8175 10.261C23.7081 10.3704 23.6467 10.5188 23.6467 10.6735C23.6467 10.8282 23.7081 10.9766 23.8175 11.086C23.9269 11.1954 24.0753 11.2569 24.23 11.2569H27.9167C28.0714 11.2569 28.2197 11.1954 28.3291 11.086C28.4385 10.9766 28.5 10.8282 28.5 10.6735C28.5 10.5188 28.4385 10.3704 28.3291 10.261C28.2197 10.1516 28.0714 10.0902 27.9167 10.0902Z" fill="black"/>
</svg>
