<svg width="5" height="5" viewBox="0 0 5 5" fill="none" xmlns="http://www.w3.org/2000/svg">
<path fill-rule="evenodd" clip-rule="evenodd" d="M4.85122 4.28004C4.69873 4.74341 4.10132 4.97461 3.6745 4.93607C3.09157 4.88338 2.45727 4.57413 1.97578 4.2336C1.26804 3.73301 0.605088 2.95874 0.218777 2.13705C-0.0542428 1.55643 -0.115499 0.842427 0.290572 0.313185C0.440749 0.117559 0.603441 0.0131595 0.84715 0.000974108C1.18571 -0.0154927 1.23313 0.178157 1.34939 0.479829C1.436 0.705424 1.5516 0.93563 1.61615 1.16946C1.73702 1.60583 1.31448 1.62394 1.26113 1.98061C1.22819 2.20555 1.50055 2.50722 1.62372 2.66761C1.86114 2.97997 2.15192 3.2479 2.48263 3.459C2.67035 3.57723 2.97268 3.79031 3.18741 3.67274C3.51806 3.49161 3.48711 2.93404 3.94917 3.12275C4.18859 3.22023 4.42044 3.36086 4.649 3.48403C5.00238 3.67406 4.98591 3.871 4.85122 4.28004C4.95199 3.97441 4.75044 4.58566 4.85122 4.28004Z" fill="white"/>
</svg>
