<svg width="5" height="5" viewBox="0 0 5 5" fill="none" xmlns="http://www.w3.org/2000/svg">
<path d="M0 0.484414C0 0.35594 0.0510363 0.232727 0.141882 0.141882C0.232727 0.0510363 0.35594 0 0.484414 0H4.35973C4.4882 0 4.61142 0.0510363 4.70226 0.141882C4.79311 0.232727 4.84414 0.35594 4.84414 0.484414V3.14869C4.84414 3.27717 4.79311 3.40038 4.70226 3.49123C4.61142 3.58207 4.4882 3.63311 4.35973 3.63311H3.24897L2.59331 4.28876C2.54789 4.33417 2.4863 4.35968 2.42207 4.35968C2.35785 4.35968 2.29625 4.33417 2.25083 4.28876L1.59518 3.63311H0.484414C0.35594 3.63311 0.232727 3.58207 0.141882 3.49123C0.0510363 3.40038 0 3.27717 0 3.14869V0.484414ZM4.35973 0.484414H0.484414V3.14869H1.69545C1.75968 3.14871 1.82128 3.17423 1.86669 3.21966L2.42207 3.77504L2.97745 3.21966C3.02286 3.17423 3.08446 3.14871 3.14869 3.14869H4.35973V0.484414ZM0.968829 1.33214C0.968829 1.2679 0.994347 1.2063 1.03977 1.16087C1.08519 1.11545 1.1468 1.08993 1.21104 1.08993H3.63311C3.69734 1.08993 3.75895 1.11545 3.80437 1.16087C3.8498 1.2063 3.87531 1.2679 3.87531 1.33214C3.87531 1.39638 3.8498 1.45798 3.80437 1.50341C3.75895 1.54883 3.69734 1.57435 3.63311 1.57435H1.21104C1.1468 1.57435 1.08519 1.54883 1.03977 1.50341C0.994347 1.45798 0.968829 1.39638 0.968829 1.33214ZM0.968829 2.30097C0.968829 2.23673 0.994347 2.17512 1.03977 2.1297C1.08519 2.08428 1.1468 2.05876 1.21104 2.05876H2.66428C2.72852 2.05876 2.79012 2.08428 2.83554 2.1297C2.88097 2.17512 2.90649 2.23673 2.90649 2.30097C2.90649 2.36521 2.88097 2.42681 2.83554 2.47223C2.79012 2.51766 2.72852 2.54317 2.66428 2.54317H1.21104C1.1468 2.54317 1.08519 2.51766 1.03977 2.47223C0.994347 2.42681 0.968829 2.36521 0.968829 2.30097Z" fill="#097BFF"/>
</svg>
