<svg width="22" height="22" viewBox="0 0 22 22" fill="none" xmlns="http://www.w3.org/2000/svg">
<path d="M14.7098 7.29179C14.6169 7.19806 14.5063 7.12367 14.3844 7.0729C14.2626 7.02213 14.1318 6.99599 13.9998 6.99599C13.8678 6.99599 13.7371 7.02213 13.6153 7.0729C13.4934 7.12367 13.3828 7.19806 13.2898 7.29179L10.9998 9.59179L8.70984 7.29179C8.52153 7.10348 8.26614 6.9977 7.99984 6.9977C7.73353 6.9977 7.47814 7.10348 7.28983 7.29179C7.10153 7.48009 6.99574 7.73549 6.99574 8.00179C6.99574 8.26809 7.10153 8.52348 7.28983 8.71179L9.58984 11.0018L7.28983 13.2918C7.19611 13.3848 7.12171 13.4954 7.07094 13.6172C7.02018 13.7391 6.99404 13.8698 6.99404 14.0018C6.99404 14.1338 7.02018 14.2645 7.07094 14.3864C7.12171 14.5082 7.19611 14.6188 7.28983 14.7118C7.3828 14.8055 7.4934 14.8799 7.61526 14.9307C7.73712 14.9814 7.86782 15.0076 7.99984 15.0076C8.13185 15.0076 8.26255 14.9814 8.38441 14.9307C8.50627 14.8799 8.61687 14.8055 8.70984 14.7118L10.9998 12.4118L13.2898 14.7118C13.3828 14.8055 13.4934 14.8799 13.6153 14.9307C13.7371 14.9814 13.8678 15.0076 13.9998 15.0076C14.1318 15.0076 14.2626 14.9814 14.3844 14.9307C14.5063 14.8799 14.6169 14.8055 14.7098 14.7118C14.8036 14.6188 14.878 14.5082 14.9287 14.3864C14.9795 14.2645 15.0056 14.1338 15.0056 14.0018C15.0056 13.8698 14.9795 13.7391 14.9287 13.6172C14.878 13.4954 14.8036 13.3848 14.7098 13.2918L12.4098 11.0018L14.7098 8.71179C14.8036 8.61883 14.878 8.50822 14.9287 8.38636C14.9795 8.26451 15.0056 8.1338 15.0056 8.00179C15.0056 7.86978 14.9795 7.73907 14.9287 7.61721C14.878 7.49535 14.8036 7.38475 14.7098 7.29179ZM18.0698 3.93179C17.1474 2.97669 16.0439 2.21486 14.8239 1.69077C13.6038 1.16668 12.2916 0.890822 10.9638 0.879284C9.63605 0.867746 8.31926 1.12076 7.09029 1.62357C5.86133 2.12638 4.74481 2.86891 3.80589 3.80784C2.86696 4.74677 2.12443 5.86328 1.62162 7.09225C1.11881 8.32121 0.865793 9.63801 0.877331 10.9658C0.888869 12.2936 1.16473 13.6058 1.68882 14.8258C2.21291 16.0459 2.97473 17.1493 3.92984 18.0718C4.8523 19.0269 5.95575 19.7887 7.17579 20.3128C8.39583 20.8369 9.70803 21.1128 11.0358 21.1243C12.3636 21.1358 13.6804 20.8828 14.9094 20.38C16.1383 19.8772 17.2549 19.1347 18.1938 18.1957C19.1327 17.2568 19.8752 16.1403 20.3781 14.9113C20.8809 13.6824 21.1339 12.3656 21.1223 11.0378C21.1108 9.70998 20.8349 8.39778 20.3109 7.17774C19.7868 5.9577 19.0249 4.85426 18.0698 3.93179ZM16.6598 16.6618C15.3519 17.9712 13.6304 18.7866 11.7886 18.9691C9.94688 19.1516 8.09884 18.6898 6.55936 17.6626C5.01987 16.6353 3.88419 15.106 3.34581 13.3353C2.80742 11.5645 2.89964 9.66193 3.60675 7.95157C4.31386 6.24122 5.59211 4.82894 7.22373 3.95535C8.85534 3.08176 10.7394 2.80092 12.5548 3.16066C14.3703 3.5204 16.0049 4.49848 17.1801 5.92825C18.3553 7.35802 18.9984 9.15103 18.9998 11.0018C19.0034 12.0531 18.7984 13.0946 18.3968 14.0662C17.9951 15.0377 17.4047 15.9199 16.6598 16.6618Z" fill="white"/>
</svg>
