<svg width="32" height="32" viewBox="0 0 32 32" fill="none" xmlns="http://www.w3.org/2000/svg">
<path fill-rule="evenodd" clip-rule="evenodd" d="M32.001 16C32.001 24.837 24.837 32 16.001 32C7.16398 32 0.000976562 24.837 0.000976562 16C0.000976562 7.164 7.16398 0 16.001 0C24.837 0 32.001 7.164 32.001 16Z" fill="#DDDDDD"/>
<mask id="mask0_64_17" style="mask-type:luminance" maskUnits="userSpaceOnUse" x="0" y="0" width="33" height="32">
<path d="M32.0004 16C32.0004 20.2434 30.3147 24.3131 27.3141 27.3136C24.3135 30.3142 20.2439 31.9999 16.0004 31.9999C11.757 31.9999 7.68733 30.3142 4.68676 27.3136C1.68619 24.3131 0.000488281 20.2434 0.000488281 16C0.000488281 11.7565 1.68619 7.68685 4.68676 4.68627C7.68733 1.6857 11.757 0 16.0004 0C20.2439 0 24.3135 1.6857 27.3141 4.68627C30.3147 7.68685 32.0004 11.7565 32.0004 16Z" fill="white"/>
</mask>
<g mask="url(#mask0_64_17)">
<path d="M13.0562 19.5382C13.2282 19.5082 10.2822 20.7202 6.1282 22.9852C5.3242 23.4242 5.0542 24.2622 5.0542 25.1792V31.9562H26.9462V24.8212C26.9462 24.0002 26.1862 23.2482 25.4692 22.8512C22.3672 21.1352 18.5302 19.4612 18.5862 19.4492L13.0562 19.5382Z" fill="#CCCCCC"/>
</g>
<path d="M18.832 20.1648C18.832 20.9244 18.5303 21.6528 17.9932 22.1899C17.4561 22.727 16.7276 23.0288 15.968 23.0288C15.2084 23.0288 14.48 22.727 13.9429 22.1899C13.4057 21.6528 13.104 20.9244 13.104 20.1648C13.104 19.4052 13.4057 18.6768 13.9429 18.1396C14.48 17.6025 15.2084 17.3008 15.968 17.3008C16.7276 17.3008 17.4561 17.6025 17.9932 18.1396C18.5303 18.6768 18.832 19.4052 18.832 20.1648Z" fill="#FFCCAA"/>
<path d="M22.7368 9.39258C22.7368 5.89441 19.901 3.05859 16.4028 3.05859C12.9047 3.05859 10.0688 5.89441 10.0688 9.39258V12.7426C10.0688 16.2408 12.9047 19.0766 16.4028 19.0766C19.901 19.0766 22.7368 16.2408 22.7368 12.7426V9.39258Z" fill="#FFCCAA"/>
<path d="M20.1569 17.6667C22.7949 16.5137 24.1539 13.5087 24.1539 10.4447C24.1539 8.463 23.3666 6.56247 21.9654 5.16119C20.5641 3.75992 18.6636 2.97266 16.6819 2.97266C14.6669 2.97266 12.8959 3.82967 11.5519 5.12567C8.71686 5.58367 8.02686 8.79269 8.02686 10.8617C8.02686 14.1517 10.1249 17.0307 11.6239 17.0307C10.3669 14.0667 10.9599 11.0687 13.0459 8.61267C14.8899 10.0257 16.5809 11.6057 19.8079 11.5227C20.4799 13.6627 20.5559 15.8377 20.0459 17.6227L20.1569 17.6667ZM12.5529 17.8727C15.7659 23.0187 11.9729 24.5397 13.0449 28.3057C13.0449 28.3057 10.1209 26.9747 9.99986 25.1707C9.27686 22.4307 11.5889 19.8147 11.7019 17.8567L12.5529 17.8727ZM19.6109 17.9167C16.3969 23.0637 20.1899 24.5847 19.1179 28.3497C19.1179 28.3497 22.0419 27.0197 22.1629 25.2157C22.8869 22.4747 20.5749 19.9057 20.4609 17.9477L19.6109 17.9167Z" fill="#2C3842"/>
<path d="M13.0739 17.449C13.0739 17.789 12.5919 18.065 11.9959 18.065C11.4009 18.065 10.9189 17.789 10.9189 17.449C10.9189 17.108 11.4009 16.832 11.9959 16.832C12.5919 16.832 13.0739 17.108 13.0739 17.449ZM21.2999 17.449C21.2999 17.789 20.8179 18.065 20.2219 18.065C19.6269 18.065 19.1449 17.789 19.1449 17.449C19.1449 17.108 19.6269 16.832 20.2219 16.832C20.8179 16.832 21.2999 17.108 21.2999 17.449Z" fill="#FEC351"/>
</svg>
