<svg width="41" height="41" viewBox="0 0 41 41" fill="none" xmlns="http://www.w3.org/2000/svg">
<g clip-path="url(#clip0_75_2)">
<path d="M27.8587 39.2149H1.5769C1.5769 31.9571 7.45883 26.0744 14.7182 26.0744C21.9776 26.0744 27.8587 31.9563 27.8587 39.2149Z" stroke="white" stroke-width="2" stroke-miterlimit="10" stroke-linecap="round" stroke-linejoin="round"/>
<path d="M20.4866 19.0713C20.4866 22.2551 17.9067 26.0784 14.7229 26.0784C13.8588 26.0784 13.0419 25.7945 12.3079 25.3207C11.6791 24.9152 11.1264 24.4026 10.675 23.806L10.6395 23.7705C9.5861 22.4207 8.94666 20.6687 8.94666 19.0713C8.94666 17.5393 9.55522 16.0701 10.6385 14.9869C11.7217 13.9036 13.191 13.295 14.7229 13.295C17.9067 13.295 20.4866 15.8875 20.4866 19.0713Z" stroke="white" stroke-width="2" stroke-miterlimit="10" stroke-linecap="round" stroke-linejoin="round"/>
<path d="M31.515 17.601C35.8825 17.601 39.4231 14.0605 39.4231 9.69292C39.4231 5.32539 35.8825 1.78481 31.515 1.78481C27.1475 1.78481 23.6069 5.32539 23.6069 9.69292C23.6069 14.0605 27.1475 17.601 31.515 17.601Z" stroke="white" stroke-width="2" stroke-miterlimit="10" stroke-linecap="round" stroke-linejoin="round"/>
<path d="M28.4272 9.69257H34.6032" stroke="white" stroke-width="2" stroke-miterlimit="10" stroke-linecap="round" stroke-linejoin="round"/>
<path d="M31.5148 12.781V6.60494" stroke="white" stroke-width="2" stroke-miterlimit="10" stroke-linecap="round" stroke-linejoin="round"/>
</g>
<defs>
<clipPath id="clip0_75_2">
<rect width="41" height="41" fill="white"/>
</clipPath>
</defs>
</svg>
