<svg width="24" height="24" viewBox="0 0 24 24" fill="none" xmlns="http://www.w3.org/2000/svg">
<path d="M2 6C2 3.79086 3.79086 2 6 2H18C20.2091 2 22 3.79086 22 6V18C22 20.2091 20.2091 22 18 22H6C3.79086 22 2 20.2091 2 18V6Z" stroke="black" stroke-linejoin="round"/>
<path d="M12 8V16M15 16V12M15 12V8.5C15 8.22386 15.2239 8 15.5 8H19M15 12H18M9 8H7.5C6.11929 8 5 9.11929 5 10.5V12V13.7778C5 15.0051 5.99492 16 7.22222 16C8.20406 16 9 15.2041 9 14.2222V12.5C9 12.2239 8.77614 12 8.5 12H7.5" stroke="black" stroke-linecap="round" stroke-linejoin="round"/>
</svg>
