<svg width="20" height="20" viewBox="0 0 20 20" fill="none" xmlns="http://www.w3.org/2000/svg">
<path d="M17.2205 10.0114V18.4821C17.2205 18.7807 16.9784 19.0228 16.6798 19.0228H3.34296C3.04435 19.0228 2.80228 18.7807 2.80228 18.4821V10.0114" stroke="#097BFF" stroke-width="1.35171" stroke-linecap="round" stroke-linejoin="round"/>
<path d="M18.4821 5.50569H1.54068C1.24207 5.50569 1 5.74776 1 6.04637V9.4707C1 9.76934 1.24207 10.0114 1.54068 10.0114H18.4821C18.7807 10.0114 19.0228 9.76934 19.0228 9.4707V6.04637C19.0228 5.74776 18.7807 5.50569 18.4821 5.50569Z" stroke="#097BFF" stroke-width="1.35171" stroke-linecap="round" stroke-linejoin="round"/>
<path d="M10.0114 19.0228V5.50569" stroke="#097BFF" stroke-width="1.35171" stroke-linecap="round" stroke-linejoin="round"/>
<path d="M10.0114 5.50569H5.95628C5.35879 5.50569 4.78576 5.26834 4.36327 4.84585C3.94078 4.42336 3.70343 3.85034 3.70343 3.25285C3.70343 2.65536 3.94078 2.08233 4.36327 1.65984C4.78576 1.23735 5.35879 1 5.95628 1C9.11026 1 10.0114 5.50569 10.0114 5.50569Z" stroke="#097BFF" stroke-width="1.35171" stroke-linecap="round" stroke-linejoin="round"/>
<path d="M10.0114 5.50569H14.0665C14.664 5.50569 15.237 5.26834 15.6595 4.84585C16.082 4.42336 16.3194 3.85034 16.3194 3.25285C16.3194 2.65536 16.082 2.08233 15.6595 1.65984C15.237 1.23735 14.664 1 14.0665 1C10.9125 1 10.0114 5.50569 10.0114 5.50569Z" stroke="#097BFF" stroke-width="1.35171" stroke-linecap="round" stroke-linejoin="round"/>
</svg>
