<svg width="31" height="31" viewBox="0 0 31 31" fill="none" xmlns="http://www.w3.org/2000/svg">
<path d="M15.7425 0.743851C12.7758 0.743851 9.87568 1.62363 7.40895 3.27192C4.94221 4.92022 3.01962 7.263 1.88431 10.004C0.748992 12.745 0.451942 15.7612 1.03072 18.671C1.6095 21.5809 3.03811 24.2537 5.1359 26.3516C7.23368 28.4495 9.90643 29.8782 12.8161 30.457C15.7259 31.0358 18.7419 30.7387 21.4827 29.6034C24.2236 28.468 26.5663 26.5453 28.2145 24.0785C29.8628 21.6116 30.7425 18.7114 30.7425 15.7445C30.7425 11.7661 29.1621 7.95062 26.3491 5.13745C23.5361 2.32428 19.7207 0.743851 15.7425 0.743851ZM15.7425 28.2451C13.2702 28.2451 10.8535 27.512 8.79787 26.1384C6.74226 24.7648 5.1401 22.8125 4.194 20.5283C3.24791 18.2441 3.00037 15.7307 3.48268 13.3058C3.965 10.8809 5.15551 8.65353 6.90366 6.9053C8.65182 5.15706 10.8791 3.9665 13.3039 3.48416C15.7286 3.00182 18.242 3.24938 20.526 4.19551C22.8101 5.14165 24.7623 6.74388 26.1359 8.79959C27.5094 10.8553 28.2425 13.2722 28.2425 15.7445C28.2425 19.0599 26.9255 22.2395 24.5813 24.5838C22.2371 26.9281 19.0577 28.2451 15.7425 28.2451Z" fill="white"/>
<path d="M15.7425 12.8694C15.411 12.8694 15.093 13.0011 14.8586 13.2356C14.6242 13.47 14.4925 13.7879 14.4925 14.1195V22.6199C14.4925 22.9514 14.6242 23.2694 14.8586 23.5038C15.093 23.7382 15.411 23.8699 15.7425 23.8699C16.074 23.8699 16.3919 23.7382 16.6264 23.5038C16.8608 23.2694 16.9925 22.9514 16.9925 22.6199V14.1195C16.9925 13.7879 16.8608 13.47 16.6264 13.2356C16.3919 13.0011 16.074 12.8694 15.7425 12.8694ZM15.7425 7.74418C15.4041 7.7569 15.0834 7.89871 14.8463 8.14048C14.6092 8.38226 14.4736 8.70565 14.4675 9.04424V9.24425C14.4669 9.40735 14.5003 9.56878 14.5655 9.71828C14.6307 9.86778 14.7263 10.0021 14.8462 10.1126C14.9661 10.2231 15.1078 10.3075 15.2621 10.3603C15.4164 10.4131 15.58 10.4332 15.7425 10.4193C16.0701 10.4069 16.3809 10.2713 16.6126 10.0395C16.8444 9.80765 16.9801 9.49683 16.9925 9.16924V8.86923C16.9935 8.71035 16.9608 8.55307 16.8966 8.40773C16.8324 8.2624 16.7382 8.1323 16.6201 8.02602C16.502 7.91973 16.3627 7.83966 16.2115 7.79109C16.0602 7.74251 15.9004 7.72652 15.7425 7.74418Z" fill="white"/>
</svg>
