<svg width="92" height="76" viewBox="0 0 92 76" fill="none" xmlns="http://www.w3.org/2000/svg">
<path d="M80.5 6.33337H11.5C10.4834 6.33337 9.50833 6.667 8.78944 7.26087C8.07055 7.85473 7.66669 8.66019 7.66669 9.50004V66.5C7.66669 67.3399 8.07055 68.1453 8.78944 68.7392C9.50833 69.3331 10.4834 69.6667 11.5 69.6667H80.5C81.5167 69.6667 82.4917 69.3331 83.2106 68.7392C83.9295 68.1453 84.3334 67.3399 84.3334 66.5V9.50004C84.3334 8.66019 83.9295 7.85473 83.2106 7.26087C82.4917 6.667 81.5167 6.33337 80.5 6.33337ZM76.6667 12.6667V39.8684L71.7217 35.7517C71.3653 35.4549 70.9414 35.2193 70.4742 35.0586C70.0071 34.8978 69.5061 34.815 69 34.815C68.494 34.815 67.9929 34.8978 67.5258 35.0586C67.0587 35.2193 66.6347 35.4549 66.2784 35.7517L54.165 45.79L37.605 26.79C37.2998 26.3901 36.8901 26.0516 36.4058 25.7996C35.9216 25.5475 35.3752 25.3882 34.8067 25.3334C34.2525 25.3056 33.6974 25.3729 33.1763 25.531C32.6551 25.689 32.1792 25.9344 31.7784 26.2517L15.3334 39.8684V12.6667H76.6667ZM15.3334 63.3334V48.7984L34.0017 33.3767L50.5617 52.3767C50.883 52.7532 51.2998 53.0672 51.7831 53.2969C52.2664 53.5266 52.8046 53.6665 53.36 53.7067H53.6667C54.1712 53.7091 54.6713 53.6292 55.1383 53.4716C55.6054 53.3141 56.0302 53.0819 56.3884 52.7884L69 42.465L76.6667 48.7984V63.3334H15.3334Z" fill="black"/>
<path d="M63.25 28.5C66.4256 28.5 69 26.3734 69 23.75C69 21.1266 66.4256 19 63.25 19C60.0744 19 57.5 21.1266 57.5 23.75C57.5 26.3734 60.0744 28.5 63.25 28.5Z" fill="black"/>
</svg>
