<svg width="17" height="33" viewBox="0 0 17 33" fill="none" xmlns="http://www.w3.org/2000/svg">
<g clip-path="url(#clip0_411_23)">
<path d="M0.563006 31.836C0.65566 31.9292 0.76582 32.0031 0.887154 32.0536C1.00849 32.1041 1.1386 32.13 1.27001 32.13C1.40142 32.13 1.53153 32.1041 1.65286 32.0536C1.77419 32.0031 1.88435 31.9292 1.97701 31.836L16.977 16.836C17.07 16.7432 17.1437 16.633 17.194 16.5117C17.2443 16.3904 17.2702 16.2603 17.2702 16.129C17.2702 15.9977 17.2443 15.8676 17.194 15.7463C17.1437 15.625 17.07 15.5148 16.977 15.422L1.97701 0.421999C1.88416 0.329154 1.77394 0.255506 1.65263 0.205259C1.53133 0.155012 1.40131 0.12915 1.27001 0.12915C1.13871 0.12915 1.00869 0.155012 0.887381 0.205259C0.766073 0.255506 0.655851 0.329154 0.563006 0.421999C0.470162 0.514844 0.396514 0.625066 0.346267 0.746373C0.29602 0.86768 0.270158 0.997697 0.270158 1.129C0.270158 1.2603 0.29602 1.39032 0.346267 1.51162C0.396514 1.63293 0.470162 1.74315 0.563006 1.836L14.856 16.129L0.563006 30.422C0.470061 30.5148 0.396323 30.625 0.346012 30.7463C0.295701 30.8676 0.269806 30.9977 0.269806 31.129C0.269806 31.2603 0.295701 31.3904 0.346012 31.5117C0.396323 31.633 0.470061 31.7432 0.563006 31.836Z" fill="#231F20"/>
</g>
<defs>
<clipPath id="clip0_411_23">
<rect width="17" height="33" fill="white"/>
</clipPath>
</defs>
</svg>
