<svg width="16" height="16" viewBox="0 0 16 16" fill="none" xmlns="http://www.w3.org/2000/svg">
<path d="M15.3475 14.1497L12.4794 11.2899C13.4048 10.111 13.9069 8.65517 13.905 7.15643C13.905 5.82168 13.5092 4.51691 12.7677 3.40711C12.0261 2.29731 10.9721 1.43233 9.739 0.921544C8.50586 0.41076 7.14894 0.277115 5.83984 0.537511C4.53075 0.797907 3.32826 1.44065 2.38445 2.38445C1.44065 3.32826 0.797907 4.53075 0.537511 5.83984C0.277115 7.14894 0.41076 8.50586 0.921544 9.739C1.43233 10.9721 2.29731 12.0261 3.40711 12.7677C4.51691 13.5092 5.82168 13.905 7.15643 13.905C8.65517 13.9069 10.111 13.4048 11.2899 12.4794L14.1497 15.3475C14.2281 15.4266 14.3214 15.4894 14.4242 15.5322C14.527 15.575 14.6372 15.5971 14.7486 15.5971C14.86 15.5971 14.9702 15.575 15.073 15.5322C15.1758 15.4894 15.2691 15.4266 15.3475 15.3475C15.4266 15.2691 15.4894 15.1758 15.5322 15.073C15.575 14.9702 15.5971 14.86 15.5971 14.7486C15.5971 14.6372 15.575 14.527 15.5322 14.4242C15.4894 14.3214 15.4266 14.2281 15.3475 14.1497ZM2.09499 7.15643C2.09499 6.15537 2.39183 5.17679 2.94799 4.34444C3.50415 3.51209 4.29464 2.86335 5.2195 2.48026C6.14435 2.09718 7.16204 1.99694 8.14387 2.19224C9.12569 2.38754 10.0276 2.86959 10.7354 3.57745C11.4433 4.2853 11.9253 5.18717 12.1206 6.16899C12.3159 7.15081 12.2157 8.1685 11.8326 9.09336C11.4495 10.0182 10.8008 10.8087 9.96841 11.3649C9.13606 11.921 8.15749 12.2179 7.15643 12.2179C5.81405 12.2179 4.52665 11.6846 3.57745 10.7354C2.62824 9.7862 2.09499 8.4988 2.09499 7.15643Z" fill="black"/>
</svg>
