<svg width="64" height="65" viewBox="0 0 64 65" fill="none" xmlns="http://www.w3.org/2000/svg">
<path fill-rule="evenodd" clip-rule="evenodd" d="M16.0182 54.9495L18.6696 52.2727C19.2363 51.7009 20.1602 51.6968 20.7322 52.2627C21.304 52.8293 21.3082 53.7534 20.7417 54.3254L15.6854 59.4301C15.2741 59.845 14.6551 59.9749 14.1119 59.7597C13.5688 59.5444 13.2067 59.0255 13.1912 58.4419L12.7194 40.3172C12.6984 39.5124 13.3341 38.8423 14.1391 38.8211C14.9438 38.8003 15.614 39.4363 15.6349 40.241L16.0182 54.9495Z" fill="black"/>
<path fill-rule="evenodd" clip-rule="evenodd" d="M30.2078 17.6435L32.5718 16.635C33.3124 16.319 33.657 15.4604 33.3411 14.7209C33.0251 13.9802 32.1665 13.6357 31.427 13.9528L29.0631 14.9613C28.3224 15.2773 27.9778 16.1358 28.2938 16.8754C28.6109 17.616 29.4683 17.9606 30.2078 17.6435Z" fill="black"/>
<path fill-rule="evenodd" clip-rule="evenodd" d="M59.2323 5.25023L37.5984 14.4885C36.8578 14.8045 36.0003 14.4599 35.6844 13.7204C35.3684 12.9797 35.7118 12.1223 36.4525 11.8063L61.4268 1.14165C61.974 0.908117 62.6094 1.03061 63.0306 1.45189C63.4519 1.87316 63.5744 2.50737 63.3409 3.05571L37.7198 63.0554C37.5297 63.5007 37.1302 63.8224 36.6551 63.9151C36.1801 64.0067 35.6901 63.8567 35.3467 63.5145L21.7319 49.8997C21.2248 49.3914 21.1618 48.5901 21.5842 48.0097L37.2676 26.4479L14.9926 41.4891C14.4134 41.8806 13.6395 41.8062 13.145 41.3128L0.968073 29.1347C0.625787 28.7924 0.475822 28.3025 0.567403 27.8274C0.66013 27.3523 0.98181 26.9528 1.42713 26.7628L23.2877 17.4283C24.0272 17.1123 24.8846 17.4558 25.2006 18.1964C25.5165 18.9371 25.1731 19.7945 24.4324 20.1105L4.55578 28.5978L14.3573 38.3993L42.5106 19.3881C43.0979 18.9921 43.8844 19.0745 44.3766 19.5839C44.8677 20.0933 44.9227 20.8821 44.506 21.4545L24.6763 48.7183L35.8847 59.9267L59.2323 5.25023Z" fill="black"/>
</svg>
