<svg width="18" height="18" viewBox="0 0 18 18" fill="none" xmlns="http://www.w3.org/2000/svg">
<path d="M13.9297 10.6801C13.4396 10.6834 12.9564 10.7958 12.5147 11.0093C12.073 11.2228 11.6838 11.5321 11.3751 11.915L7.14496 9.9542C7.34385 9.34156 7.34385 8.68116 7.14496 8.06852L11.3751 6.10773C11.874 6.71346 12.5697 7.1224 13.3393 7.26237C14.1088 7.40235 14.9028 7.26437 15.581 6.87278C16.2593 6.48118 16.7783 5.86116 17.0463 5.12212C17.3144 4.38309 17.3143 3.57255 17.0461 2.83357C16.7779 2.09458 16.2588 1.47465 15.5805 1.08319C14.9022 0.691717 14.1082 0.553879 13.3387 0.693996C12.5691 0.834112 11.8736 1.24318 11.3747 1.849C10.8758 2.45482 10.6057 3.21844 10.612 4.00511C10.6145 4.20388 10.6339 4.40208 10.67 4.59752L6.29065 6.62505C5.82375 6.16579 5.2325 5.85535 4.59099 5.73262C3.94948 5.6099 3.28623 5.68034 2.68434 5.93513C2.08245 6.18992 1.56868 6.61772 1.20742 7.16494C0.846148 7.71216 0.653442 8.35445 0.653442 9.01136C0.653442 9.66826 0.846148 10.3106 1.20742 10.8578C1.56868 11.405 2.08245 11.8328 2.68434 12.0876C3.28623 12.3424 3.94948 12.4128 4.59099 12.2901C5.2325 12.1674 5.82375 11.8569 6.29065 11.3977L10.67 13.4252C10.6339 13.6206 10.6145 13.8188 10.612 14.0176C10.612 14.6777 10.8066 15.323 11.1711 15.8718C11.5357 16.4207 12.0538 16.8484 12.6601 17.1011C13.2663 17.3537 13.9334 17.4198 14.5769 17.291C15.2205 17.1622 15.8117 16.8443 16.2757 16.3776C16.7397 15.9108 17.0556 15.3161 17.1837 14.6687C17.3117 14.0213 17.246 13.3503 16.9949 12.7404C16.7437 12.1306 16.3185 11.6093 15.7729 11.2426C15.2273 10.8759 14.5859 10.6801 13.9297 10.6801ZM13.9297 2.33636C14.2578 2.33636 14.5785 2.43423 14.8513 2.61759C15.1241 2.80096 15.3367 3.06158 15.4623 3.36651C15.5878 3.67143 15.6207 4.00696 15.5567 4.33067C15.4927 4.65437 15.3347 4.95171 15.1027 5.18509C14.8707 5.41847 14.5751 5.57741 14.2533 5.64179C13.9315 5.70618 13.598 5.67314 13.2949 5.54683C12.9918 5.42053 12.7327 5.20664 12.5504 4.93222C12.3681 4.65779 12.2708 4.33516 12.2708 4.00511C12.2708 3.56253 12.4456 3.13808 12.7567 2.82513C13.0678 2.51217 13.4897 2.33636 13.9297 2.33636ZM3.97655 10.6801C3.64846 10.6801 3.32773 10.5822 3.05493 10.3989C2.78214 10.2155 2.56952 9.95489 2.44396 9.64996C2.31841 9.34504 2.28556 9.00951 2.34956 8.6858C2.41357 8.3621 2.57156 8.06475 2.80356 7.83138C3.03555 7.598 3.33113 7.43906 3.65292 7.37467C3.97471 7.31028 4.30825 7.34333 4.61136 7.46964C4.91448 7.59594 5.17356 7.80983 5.35584 8.08425C5.53811 8.35868 5.6354 8.68131 5.6354 9.01136C5.6354 9.45394 5.46063 9.87839 5.14954 10.1913C4.83844 10.5043 4.4165 10.6801 3.97655 10.6801ZM13.9297 15.6864C13.6016 15.6864 13.2809 15.5885 13.0081 15.4051C12.7353 15.2218 12.5227 14.9611 12.3971 14.6562C12.2716 14.3513 12.2387 14.0158 12.3027 13.6921C12.3667 13.3683 12.5247 13.071 12.7567 12.8376C12.9887 12.6042 13.2843 12.4453 13.6061 12.3809C13.9278 12.3165 14.2614 12.3496 14.5645 12.4759C14.8676 12.6022 15.1267 12.8161 15.309 13.0905C15.4913 13.3649 15.5885 13.6876 15.5885 14.0176C15.5885 14.4602 15.4138 14.8846 15.1027 15.1976C14.7916 15.5105 14.3696 15.6864 13.9297 15.6864Z" fill="black"/>
</svg>
