<svg width="86" height="86" viewBox="0 0 86 86" fill="none" xmlns="http://www.w3.org/2000/svg">
<g clip-path="url(#clip0_405_4)">
<mask id="mask0_405_4" style="mask-type:luminance" maskUnits="userSpaceOnUse" x="0" y="0" width="86" height="86">
<path d="M85.3333 0H0V85.3333H85.3333V0Z" fill="white"/>
</mask>
<g mask="url(#mask0_405_4)">
<path d="M8.88933 58.9427H21.912C22.8107 58.9427 24.056 59.4587 24.6907 60.0933L39.62 75.024C41.5267 76.9293 43.0733 76.288 43.0733 73.5933V11.7347C43.0733 9.03999 41.5267 8.39866 39.62 10.3053L24.6907 25.2347C24.056 25.8707 22.8107 26.3853 21.912 26.3853H8.88933C6.19333 26.3853 4.00533 28.5747 4.00533 31.2693V54.0587C4.00533 56.7547 6.19333 58.9427 8.88933 58.9427Z" fill="black"/>
<path fill-rule="evenodd" clip-rule="evenodd" d="M74.816 42.6667C74.816 35.3093 72.488 28.1307 68.1587 22.172C63.9093 16.312 57.968 11.868 51.148 9.44266L49.6053 8.89599C48.7587 8.59599 48.316 7.66399 48.616 6.81866L49.7067 3.74932C50.008 2.90266 50.94 2.45999 51.7853 2.76132L53.3133 3.30532C61.3867 6.17066 68.4027 11.412 73.4333 18.3467C78.56 25.412 81.328 33.9253 81.328 42.6667C81.328 51.392 78.56 59.9053 73.4333 66.9707C68.4027 73.9053 61.3867 79.1627 53.3133 82.028L51.7853 82.572C50.94 82.8733 50.008 82.4307 49.7067 81.584L48.616 78.5147C48.316 77.6693 48.7587 76.7373 49.6053 76.4373L51.148 75.8907C57.968 73.4653 63.9093 69.0213 68.1587 63.1613C72.488 57.2027 74.816 50.024 74.816 42.6667Z" fill="black"/>
<path d="M50.7733 25.9813L49.3133 25.248C48.5107 24.844 48.1867 23.864 48.5907 23.0613L50.0587 20.1427C50.4613 19.34 51.44 19.0173 52.2427 19.4227L53.6867 20.1533C57.936 22.2867 61.5493 25.46 64.2187 29.384C66.856 33.3067 68.2893 37.9293 68.3053 42.6667C68.2893 47.404 66.856 52.0107 64.2187 55.9333C61.5493 59.856 57.936 63.0307 53.6867 65.164L52.2427 65.8933C51.44 66.2987 50.4613 65.9773 50.0573 65.1747L48.592 62.2707C48.188 61.468 48.5107 60.4893 49.3133 60.0853L50.7733 59.352C54.0133 57.724 56.78 55.2827 58.8307 52.2867C60.736 49.4387 61.7773 46.1013 61.7933 42.6667C61.7773 39.232 60.736 35.8787 58.8307 33.0467C56.78 30.0347 54.0133 27.6093 50.7733 25.9813Z" fill="black"/>
</g>
</g>
<defs>
<clipPath id="clip0_405_4">
<rect width="85.3333" height="85.3333" fill="white"/>
</clipPath>
</defs>
</svg>
