<svg width="448" height="292" viewBox="0 0 448 292" fill="none" xmlns="http://www.w3.org/2000/svg">
<path d="M305.454 120C339.053 120 366.546 92.998 366.546 60C366.546 27.003 339.053 0 305.454 0C271.855 0 244.364 27.003 244.364 60C244.364 92.998 271.855 120 305.454 120ZM142.546 120C176.145 120 203.636 92.998 203.636 60C203.636 27.003 176.145 0 142.546 0C108.947 0 81.454 27.003 81.454 60C81.454 92.998 108.947 120 142.546 120ZM142.546 164C94.688 164 0 186.998 0 234V288H288V234C288 186.998 190.401 164 142.546 164ZM305.454 175.003C299.349 175.003 295.129 175.003 288 176C311.426 193.002 320 204 320 234V288H448V234C448 186.998 353.312 175.003 305.454 175.003Z" fill="#BC0000"/>
</svg>
