<svg width="40" height="50" viewBox="0 0 40 50" fill="none" xmlns="http://www.w3.org/2000/svg">
<g clip-path="url(#clip0_409_19)">
<path d="M28.343 12.5804C28.343 13.0448 28.3113 13.5092 28.2533 13.9683C28.2797 13.7836 28.3061 13.5936 28.3272 13.4089C28.2005 14.3271 27.9578 15.219 27.6042 16.0738C27.6728 15.905 27.7467 15.7361 27.8153 15.5672C27.4617 16.401 27.0079 17.182 26.4538 17.8997L26.7863 17.4723C26.2375 18.1794 25.5989 18.8179 24.8918 19.3667L25.3193 19.0343C24.6016 19.5831 23.8206 20.0422 22.9868 20.3957C23.1557 20.3271 23.3245 20.2533 23.4934 20.1847C22.6385 20.5382 21.7467 20.781 20.8285 20.9076C21.0132 20.8812 21.2032 20.8548 21.3879 20.8337C20.4644 20.9551 19.5356 20.9551 18.6121 20.8337C18.7968 20.8601 18.9868 20.8865 19.1715 20.9076C18.2533 20.781 17.3615 20.5382 16.5066 20.1847C16.6755 20.2533 16.8443 20.3271 17.0132 20.3957C16.1794 20.0422 15.3984 19.5884 14.6807 19.0343L15.1082 19.3667C14.4011 18.8179 13.7625 18.1794 13.2137 17.4723L13.5462 17.8997C12.9974 17.182 12.5383 16.401 12.1847 15.5672C12.2533 15.7361 12.3272 15.905 12.3958 16.0738C12.0422 15.219 11.7995 14.3271 11.6728 13.4089C11.6992 13.5936 11.7256 13.7836 11.7467 13.9683C11.6253 13.0448 11.6253 12.1161 11.7467 11.1926C11.7203 11.3773 11.6939 11.5673 11.6728 11.7519C11.7995 10.8337 12.0422 9.94192 12.3958 9.08704C12.3272 9.2559 12.2533 9.42477 12.1847 9.59364C12.5383 8.75986 12.9921 7.97886 13.5462 7.26118L13.2137 7.68862C13.7625 6.9815 14.4011 6.34298 15.1082 5.79416L14.6807 6.12662C15.3984 5.5778 16.1794 5.1187 17.0132 4.76514C16.8443 4.83374 16.6755 4.90762 16.5066 4.97622C17.3615 4.62266 18.2533 4.37992 19.1715 4.25327C18.9868 4.27965 18.7968 4.30604 18.6121 4.32714C19.5356 4.20577 20.4644 4.20577 21.3879 4.32714C21.2032 4.30076 21.0132 4.27437 20.8285 4.25327C21.7467 4.37992 22.6385 4.62266 23.4934 4.97622C23.3245 4.90762 23.1557 4.83374 22.9868 4.76514C23.8206 5.1187 24.6016 5.57253 25.3193 6.12662L24.8918 5.79416C25.5989 6.34298 26.2375 6.9815 26.7863 7.68862L26.4538 7.26118C27.0026 7.97886 27.4617 8.75986 27.8153 9.59364C27.7467 9.42477 27.6728 9.2559 27.6042 9.08704C27.9578 9.94192 28.2005 10.8337 28.3272 11.7519C28.3008 11.5673 28.2744 11.3773 28.2533 11.1926C28.3113 11.6517 28.3377 12.1161 28.343 12.5804C28.3483 13.6833 29.3087 14.744 30.4538 14.6913C31.5937 14.6385 32.5699 13.7625 32.5646 12.5804C32.5541 10.0527 31.7942 7.46699 30.3061 5.40894C29.905 4.85485 29.4776 4.31131 29.0026 3.82055C28.5224 3.32451 27.9947 2.89707 27.4459 2.48018C26.4485 1.72028 25.3351 1.16092 24.153 0.7282C19.3879 -1.0185 13.6412 0.538227 10.4169 4.46435C9.97362 5.00261 9.55145 5.56197 9.19262 6.16356C8.83378 6.75986 8.55409 7.39311 8.29552 8.03691C7.81003 9.22952 7.56201 10.496 7.46174 11.7783C7.26649 14.2902 7.92085 16.9129 9.22955 19.0659C10.4908 21.1451 12.3958 22.9287 14.6227 23.9366C15.277 24.2322 15.9472 24.5066 16.6438 24.7018C17.3351 24.8918 18.0369 24.9973 18.7493 25.0818C20.0475 25.2348 21.372 25.1293 22.6544 24.8707C27.5251 23.8786 31.6042 19.6833 32.3588 14.7599C32.4697 14.0422 32.5541 13.3245 32.5541 12.5963C32.5594 11.4934 31.5778 10.4327 30.4433 10.4855C29.3034 10.5224 28.343 11.3984 28.343 12.5804ZM35.3456 45.5778H8.26913C7.07124 45.5778 5.87335 45.5884 4.67546 45.5778C4.54354 45.5778 4.41161 45.5672 4.28496 45.5514C4.46966 45.5778 4.65963 45.6042 4.84433 45.6253C4.63325 45.5936 4.43272 45.5356 4.23747 45.4564C4.40633 45.525 4.5752 45.5989 4.74406 45.6675C4.53298 45.5778 4.33773 45.4617 4.15304 45.3192L4.58048 45.6517C4.42217 45.5198 4.27441 45.3773 4.14776 45.219L4.48021 45.6464C4.33773 45.4617 4.22691 45.2665 4.13193 45.0554C4.20053 45.2242 4.27441 45.3931 4.34301 45.562C4.26385 45.3667 4.21108 45.1609 4.17414 44.9551C4.20053 45.1398 4.22691 45.3298 4.24802 45.5145C4.16359 44.876 4.22164 44.2005 4.22164 43.5567V41.2981C4.22164 40.7335 4.2533 40.1741 4.32718 39.6147C4.30079 39.7994 4.27441 39.9894 4.2533 40.1741C4.40106 39.0923 4.68602 38.0316 5.11346 37.0237C5.04486 37.1926 4.97098 37.3614 4.90238 37.5303C5.31399 36.5699 5.84169 35.6675 6.48021 34.839L6.14776 35.2665C6.78628 34.4485 7.51979 33.7097 8.34301 33.0712L7.91557 33.4037C8.74407 32.7651 9.64644 32.2374 10.6069 31.8258C10.438 31.8944 10.2691 31.9683 10.1003 32.0369C11.1082 31.6147 12.1636 31.3245 13.2507 31.1767C13.066 31.2031 12.876 31.2295 12.6913 31.2506C13.4723 31.1504 14.248 31.1451 15.0343 31.1451H24.6913C25.562 31.1451 26.4274 31.1398 27.2982 31.2506C27.1135 31.2242 26.9235 31.1979 26.7388 31.1767C27.8206 31.3245 28.8813 31.6095 29.8892 32.0369C29.7203 31.9683 29.5515 31.8944 29.3826 31.8258C30.343 32.2374 31.2454 32.7651 32.0739 33.4037L31.6464 33.0712C32.4644 33.7097 33.2032 34.4432 33.8417 35.2665L33.5092 34.839C34.1478 35.6675 34.6755 36.5699 35.0871 37.5303C35.0185 37.3614 34.9446 37.1926 34.876 37.0237C35.2982 38.0316 35.5884 39.087 35.7362 40.1741C35.7098 39.9894 35.6834 39.7994 35.6623 39.6147C35.7625 40.4116 35.7678 41.2031 35.7678 42.0052V44.6174C35.7678 44.9182 35.7784 45.219 35.7414 45.5145C35.7678 45.3298 35.7942 45.1398 35.8153 44.9551C35.7836 45.1662 35.7256 45.3667 35.6464 45.562C35.715 45.3931 35.7889 45.2242 35.8575 45.0554C35.7678 45.2665 35.6517 45.4617 35.5092 45.6464L35.8417 45.219C35.7098 45.3773 35.5673 45.525 35.409 45.6517L35.8364 45.3192C35.6517 45.4617 35.4565 45.5725 35.2454 45.6675C35.4143 45.5989 35.5831 45.525 35.752 45.4564C35.5567 45.5356 35.3509 45.5884 35.1451 45.6253C35.3298 45.5989 35.5198 45.5725 35.7045 45.5514C35.5884 45.5672 35.467 45.5725 35.3456 45.5778C34.8021 45.5831 34.2427 45.81 33.8522 46.1952C33.4881 46.5593 33.2084 47.1609 33.2348 47.6886C33.2876 48.8179 34.1636 49.8153 35.3456 49.7994C37.3984 49.7678 39.2032 48.4274 39.8048 46.4591C40.0422 45.6781 39.9894 44.839 39.9894 44.0369C39.9894 42.2005 40.0475 40.3799 39.7309 38.5593C39.2665 35.8944 37.9261 33.3878 36.0897 31.4195C34.2533 29.4512 31.7836 28.0052 29.1715 27.3614C27.6728 26.9921 26.1636 26.934 24.6332 26.934H15.2718C13.7045 26.934 12.1478 27.0079 10.6227 27.4142C8.03166 28.1002 5.59367 29.562 3.7942 31.5461C1.97889 33.5461 0.664909 36.058 0.237469 38.7388C-0.0474917 40.5382 0.0105556 42.343 0.0105556 44.1583C0.0105556 44.992 -0.0369376 45.8628 0.263854 46.6596C0.654355 47.6833 1.27705 48.4907 2.18998 49.0976C2.90238 49.5672 3.80475 49.7942 4.64908 49.8047C5.06069 49.81 5.4723 49.8047 5.88391 49.8047H35.3509C36.4538 49.8047 37.5145 48.8337 37.4617 47.6939C37.409 46.5435 36.533 45.5778 35.3456 45.5778Z" fill="black"/>
</g>
<defs>
<clipPath id="clip0_409_19">
<rect width="40" height="49.8153" fill="white"/>
</clipPath>
</defs>
</svg>
