<svg width="64" height="64" viewBox="0 0 64 64" fill="none" xmlns="http://www.w3.org/2000/svg">
<path d="M23.7 41.9C23.4794 41.9101 23.2617 41.8469 23.0808 41.7203C22.8999 41.5937 22.766 41.4107 22.7 41.2L17.21 23.39C17.1315 23.138 17.1557 22.8653 17.2775 22.6311C17.3992 22.397 17.6086 22.2204 17.86 22.14C17.986 22.0998 18.1188 22.085 18.2506 22.0965C18.3824 22.108 18.5106 22.1455 18.6278 22.2069C18.745 22.2683 18.8489 22.3523 18.9333 22.4541C19.0178 22.5559 19.0813 22.6735 19.12 22.8L23.66 37.43L27.91 22.82C27.9405 22.6877 27.9975 22.563 28.0778 22.4535C28.158 22.344 28.2596 22.2519 28.3766 22.183C28.4935 22.114 28.6233 22.0696 28.758 22.0524C28.8926 22.0352 29.0294 22.0457 29.1599 22.083C29.2904 22.1204 29.4119 22.184 29.5171 22.2699C29.6222 22.3557 29.7088 22.4621 29.7715 22.5825C29.8342 22.703 29.8717 22.8349 29.8818 22.9703C29.8918 23.1056 29.8742 23.2417 29.83 23.37L24.66 41.18C24.5999 41.3861 24.4751 41.5674 24.304 41.697C24.1329 41.8267 23.9247 41.8979 23.71 41.9H23.7ZM41.89 41.9H38.72C37.4197 41.8873 36.1756 41.3685 35.2515 40.4537C34.3273 39.5389 33.7959 38.3001 33.77 37C33.77 36.7348 33.8754 36.4804 34.0629 36.2929C34.2504 36.1054 34.5048 36 34.77 36C35.0352 36 35.2896 36.1054 35.4771 36.2929C35.6646 36.4804 35.77 36.7348 35.77 37C35.7854 37.7766 36.1015 38.517 36.6517 39.0653C37.2019 39.6137 37.9433 39.9272 38.72 39.94H41.89C42.6754 39.9402 43.4295 39.6323 43.9904 39.0827C44.5513 38.533 44.8743 37.7852 44.89 37V35.71C44.89 34.9144 44.5739 34.1513 44.0113 33.5887C43.4487 33.0261 42.6856 32.71 41.89 32.71H38.72C37.4112 32.697 36.1597 32.1713 35.2342 31.2458C34.3087 30.3203 33.783 29.0688 33.77 27.76V27C33.7856 25.693 34.3125 24.444 35.2377 23.5207C36.1629 22.5973 37.4129 22.073 38.72 22.06H42.35C43.5391 22.06 44.6796 22.5317 45.5214 23.3716C46.3631 24.2114 46.8374 25.3509 46.84 26.54C46.84 26.8052 46.7346 27.0596 46.5471 27.2471C46.3596 27.4347 46.1052 27.54 45.84 27.54C45.5748 27.54 45.3204 27.4347 45.1329 27.2471C44.9454 27.0596 44.84 26.8052 44.84 26.54C44.8374 25.8814 44.5738 25.2506 44.1072 24.7858C43.6405 24.321 43.0087 24.06 42.35 24.06H38.72C37.9433 24.0728 37.2019 24.3864 36.6517 24.9347C36.1015 25.483 35.7854 26.2234 35.77 27V27.77C35.7699 28.5571 36.0791 29.3127 36.6309 29.8739C37.1828 30.435 37.933 30.7569 38.72 30.77H41.89C43.2075 30.7699 44.4717 31.2899 45.408 32.2168C46.3442 33.1437 46.8768 34.4026 46.89 35.72V37C46.8638 38.3087 46.3255 39.5549 45.3906 40.4711C44.4558 41.3872 43.1989 41.9003 41.89 41.9Z" fill="#222222"/>
<path d="M32 55.68C27.3165 55.68 22.7383 54.2912 18.8441 51.6892C14.9499 49.0872 11.9148 45.3889 10.1225 41.062C8.33025 36.735 7.86131 31.9737 8.77501 27.3803C9.68871 22.7868 11.944 18.5674 15.2557 15.2557C18.5674 11.944 22.7868 9.68872 27.3803 8.77502C31.9737 7.86132 36.735 8.33027 41.0619 10.1226C45.3889 11.9148 49.0872 14.95 51.6892 18.8441C54.2912 22.7383 55.68 27.3166 55.68 32C55.6747 38.2787 53.1782 44.2987 48.7384 48.7385C44.2987 53.1782 38.2787 55.6747 32 55.68ZM32 10.32C27.7121 10.32 23.5205 11.5915 19.9552 13.9738C16.39 16.356 13.6112 19.7419 11.9703 23.7034C10.3294 27.6649 9.90005 32.0241 10.7366 36.2296C11.5731 40.4351 13.6379 44.2981 16.6699 47.3301C19.7019 50.3621 23.5649 52.4269 27.7704 53.2634C31.976 54.1 36.3351 53.6706 40.2966 52.0297C44.2581 50.3888 47.644 47.61 50.0263 44.0448C52.4085 40.4795 53.68 36.2879 53.68 32C53.6747 26.2517 51.3889 20.7404 47.3242 16.6758C43.2596 12.6112 37.7483 10.3253 32 10.32Z" fill="#222222"/>
<path d="M48 17C47.8684 17.0008 47.7379 16.9755 47.6161 16.9258C47.4943 16.876 47.3834 16.8027 47.29 16.71C47.1963 16.617 47.1219 16.5064 47.0711 16.3846C47.0203 16.2627 46.9942 16.132 46.9942 16C46.9942 15.868 47.0203 15.7373 47.0711 15.6154C47.1219 15.4936 47.1963 15.383 47.29 15.29L59.29 3.29C59.3832 3.19676 59.4939 3.1228 59.6157 3.07234C59.7376 3.02188 59.8681 2.99591 60 2.99591C60.1319 2.99591 60.2624 3.02188 60.3843 3.07234C60.5061 3.1228 60.6168 3.19676 60.71 3.29C60.8032 3.38324 60.8772 3.49393 60.9277 3.61575C60.9781 3.73758 61.0041 3.86814 61.0041 4C61.0041 4.13186 60.9781 4.26243 60.9277 4.38425C60.8772 4.50607 60.8032 4.61676 60.71 4.71L48.71 16.71C48.6166 16.8027 48.5057 16.876 48.3839 16.9258C48.2621 16.9755 48.1316 17.0008 48 17ZM4 61C3.86839 61.0008 3.73793 60.9755 3.61609 60.9258C3.49426 60.876 3.38344 60.8027 3.29 60.71C3.19627 60.617 3.12188 60.5064 3.07111 60.3846C3.02034 60.2627 2.9942 60.132 2.9942 60C2.9942 59.868 3.02034 59.7373 3.07111 59.6154C3.12188 59.4936 3.19627 59.383 3.29 59.29L15.29 47.29C15.4783 47.1017 15.7337 46.9959 16 46.9959C16.2663 46.9959 16.5217 47.1017 16.71 47.29C16.8983 47.4783 17.0041 47.7337 17.0041 48C17.0041 48.2663 16.8983 48.5217 16.71 48.71L4.71 60.71C4.61656 60.8027 4.50574 60.876 4.38391 60.9258C4.26207 60.9755 4.13161 61.0008 4 61Z" fill="#222222"/>
</svg>
