<svg width="16" height="25" viewBox="0 0 16 25" fill="none" xmlns="http://www.w3.org/2000/svg">
<path d="M11.4824 14.8349C11.4604 14.7694 11.4207 14.7112 11.3678 14.6668C11.3148 14.6223 11.2506 14.5934 11.1823 14.5832L9.04758 14.2568L8.08918 12.2155C8.05889 12.1511 8.01088 12.0966 7.95077 12.0584C7.89066 12.0203 7.82092 12 7.74971 12C7.67851 12 7.60877 12.0203 7.54866 12.0584C7.48855 12.0966 7.44054 12.1511 7.41025 12.2155L6.45298 14.2568L4.31826 14.5832C4.25015 14.5936 4.18623 14.6226 4.13352 14.667C4.0808 14.7114 4.04133 14.7694 4.01944 14.8348C3.99754 14.9001 3.99407 14.9702 4.0094 15.0374C4.02472 15.1046 4.05826 15.1662 4.10633 15.2156L5.66226 16.8102L5.29391 19.0664C5.28258 19.1359 5.29103 19.2072 5.3183 19.2721C5.34558 19.337 5.39057 19.3929 5.44813 19.4335C5.5057 19.474 5.57351 19.4975 5.64381 19.5014C5.71412 19.5052 5.78408 19.4891 5.84569 19.455L7.75084 18.4017L9.65599 19.455C9.71138 19.4859 9.77376 19.5021 9.83717 19.5019C9.89157 19.502 9.94533 19.4902 9.99473 19.4674C10.0441 19.4446 10.088 19.4114 10.1232 19.3699C10.1585 19.3285 10.1843 19.2799 10.1989 19.2275C10.2135 19.1751 10.2165 19.1201 10.2078 19.0664L9.83942 16.8102L11.3954 15.2156C11.4434 15.1663 11.477 15.1046 11.4923 15.0375C11.5077 14.9703 11.5042 14.9002 11.4824 14.8349ZM9.17023 16.4219C9.12927 16.464 9.09873 16.515 9.08107 16.571C9.06342 16.6269 9.05914 16.6862 9.06858 16.7442L9.34278 18.4246L7.93202 17.6452C7.87653 17.6146 7.8142 17.5985 7.75084 17.5985C7.68748 17.5985 7.62515 17.6146 7.56966 17.6452L6.1589 18.4246L6.4331 16.7442C6.44254 16.6862 6.43826 16.6269 6.4206 16.571C6.40295 16.515 6.37241 16.464 6.33145 16.4219L5.15324 15.2141L6.76619 14.968C6.82704 14.9588 6.88467 14.9346 6.934 14.8978C6.98332 14.861 7.02282 14.8126 7.04902 14.7569L7.75272 13.2564L8.45641 14.7569C8.48261 14.8126 8.52211 14.861 8.57143 14.8978C8.62076 14.9346 8.67839 14.9588 8.73924 14.968L10.3503 15.2141L9.17023 16.4219Z" fill="black"/>
<path d="M9.37774 9.24932V7.87719H9.75285C9.85233 7.87719 9.94774 7.83767 10.0181 7.76732C10.0884 7.69698 10.128 7.60157 10.128 7.50208V6.14158L14.9128 0.620797C14.9599 0.566447 14.9904 0.499698 15.0006 0.428504C15.0109 0.35731 15.0004 0.284673 14.9705 0.219248C14.9406 0.153824 14.8926 0.0983719 14.8321 0.0594994C14.7715 0.0206268 14.7011 -2.66721e-05 14.6292 2.58508e-08H10.8782C10.8244 -1.99308e-05 10.7712 0.0115258 10.7223 0.0338542C10.6734 0.0561826 10.6298 0.0887715 10.5946 0.129411L6.56446 4.77958L3.07224 0.750208H3.95486L6.44368 3.62163L7.01046 3.13024L4.40986 0.129411C4.37464 0.0887715 4.33108 0.0561826 4.28215 0.0338542C4.23323 0.0115258 4.18007 -1.99308e-05 4.12629 2.58508e-08H0.375243C0.303317 -2.66721e-05 0.232899 0.0206268 0.172381 0.0594994C0.111863 0.0983719 0.0637976 0.153824 0.033912 0.219248C0.0040264 0.284673 -0.00641879 0.35731 0.00382071 0.428504C0.0140602 0.499698 0.0445528 0.566447 0.0916649 0.620797L4.87649 6.14158V7.50208C4.87649 7.60157 4.91601 7.69698 4.98636 7.76732C5.0567 7.83767 5.15211 7.87719 5.2516 7.87719H5.6267V9.24932C3.85873 9.70581 2.31793 10.7914 1.29312 12.3027C0.268312 13.8139 -0.170145 15.6471 0.0599331 17.4585C0.290012 19.2699 1.17283 20.9352 2.54291 22.1423C3.91299 23.3493 5.67627 24.0153 7.50222 24.0153C9.32818 24.0153 11.0915 23.3493 12.4615 22.1423C13.8316 20.9352 14.7144 19.2699 14.9445 17.4585C15.1746 15.6471 14.7361 13.8139 13.7113 12.3027C12.6865 10.7914 11.1457 9.70581 9.37774 9.24932ZM9.37774 7.12698H5.6267V6.37677H9.37774V7.12698ZM9.58142 5.62656H8.6988L12.9251 0.750208H13.8077L9.58142 5.62656ZM11.0496 0.750208H11.9322L7.7059 5.62656H6.82328L11.0496 0.750208ZM2.07934 0.750208L6.0682 5.35236L5.83038 5.62656H5.42302L1.19672 0.750208H2.07934ZM6.37691 7.87719H8.62754V9.09628C7.88254 8.97124 7.12191 8.97124 6.37691 9.09628V7.87719ZM7.50222 23.2565C6.16683 23.2565 4.86142 22.8605 3.75108 22.1186C2.64074 21.3767 1.77534 20.3222 1.2643 19.0884C0.75327 17.8547 0.619561 16.4971 0.880083 15.1874C1.14061 13.8776 1.78366 12.6746 2.72793 11.7303C3.67219 10.786 4.87526 10.143 6.185 9.88244C7.49473 9.62192 8.85231 9.75563 10.0861 10.2667C11.3198 10.7777 12.3743 11.6431 13.1162 12.7534C13.8581 13.8638 14.2541 15.1692 14.2541 16.5046C14.252 18.2947 13.54 20.0108 12.2742 21.2766C11.0084 22.5423 9.29229 23.2544 7.50222 23.2565Z" fill="black"/>
</svg>
